<?xml version="1.0" encoding="UTF-8" standalone="no"?>
<svg
   xmlns:dc="http://purl.org/dc/elements/1.1/"
   xmlns:cc="http://creativecommons.org/ns#"
   xmlns:rdf="http://www.w3.org/1999/02/22-rdf-syntax-ns#"
   xmlns:svg="http://www.w3.org/2000/svg"
   xmlns="http://www.w3.org/2000/svg"
   id="svg2221"
   version="1.1"
   viewBox="0 0 62.90361 27.416321"
   height="27.416321mm"
   width="62.90361mm">
  <defs
     id="defs2215" />
  <metadata
     id="metadata2218">
    <rdf:RDF>
      <cc:Work
         rdf:about="">
        <dc:format>image/svg+xml</dc:format>
        <dc:type
           rdf:resource="http://purl.org/dc/dcmitype/StillImage" />
        <dc:title></dc:title>
      </cc:Work>
    </rdf:RDF>
  </metadata>
  <g
     transform="translate(-44.084122,-132.71576)"
     id="layer1">
    <path
       style="opacity:1;fill:#8e1d03;fill-opacity:1;fill-rule:evenodd;stroke:#f07c16;stroke-width:0.39310086;stroke-linecap:round;stroke-linejoin:round;stroke-miterlimit:4;stroke-dasharray:none;stroke-dashoffset:0;stroke-opacity:1"
       d="m 72.881276,132.91277 c -4.387085,0 -7.918742,3.53166 -7.918742,7.91877 0,4.3871 3.531657,7.91874 7.918742,7.91874 H 98.87244 c 4.38708,0 7.91874,-3.53164 7.91874,-7.91874 0,-4.38711 -3.53166,-7.91877 -7.91874,-7.91877 z m 0.864645,2.48725 h 24.26189 c 3.009129,0 5.431529,2.42241 5.431529,5.43152 0,3.0091 -2.4224,5.43151 -5.431529,5.43151 h -24.26189 c -3.009109,0 -5.431514,-2.42241 -5.431514,-5.43151 0,-3.00911 2.422405,-5.43152 5.431514,-5.43152 z"
       id="rect5236-0-7-6-1" />
    <path
       style="opacity:1;fill:#8e1d03;fill-opacity:1;fill-rule:evenodd;stroke:#f07c16;stroke-width:0.39310086;stroke-linecap:round;stroke-linejoin:round;stroke-miterlimit:4;stroke-dasharray:none;stroke-dashoffset:0;stroke-opacity:1"
       d="m 44.280672,132.91277 a 27.022822,27.022822 0 0 0 27.022756,27.02276 27.022822,27.022822 0 0 0 27.022757,-27.02276 z"
       id="path5133-9-3-5-6-5-5" />
    <path
       style="opacity:1;fill:#8e1d03;fill-opacity:1;fill-rule:evenodd;stroke:#f07c16;stroke-width:0.39310086;stroke-linecap:round;stroke-linejoin:round;stroke-miterlimit:4;stroke-dasharray:none;stroke-dashoffset:0;stroke-opacity:1"
       d="m 46.655454,158.05777 h 49.537054 c 0.963217,0 1.263035,0.0157 1.458723,0.27373 0.419301,0.55095 -0.495506,1.60403 -1.458723,1.60403 H 46.655454 c -0.963196,0 -2.444714,-0.99993 -2.018573,-1.60403 0.246808,-0.35009 1.055377,-0.27373 2.018573,-0.27373 z"
       id="rect5147-5-1-94-6-9-5" />
    <rect
       ry="0.76927137"
       y="137.16823"
       x="82.726868"
       height="6.4626231"
       width="7.2258601"
       id="rect5320-2-7-2"
       style="opacity:1;fill:#5e8f11;fill-opacity:1;fill-rule:evenodd;stroke:none;stroke-width:0.14887734;stroke-linecap:round;stroke-linejoin:round;stroke-miterlimit:4;stroke-dasharray:none;stroke-dashoffset:0;stroke-opacity:1" />
    <rect
       ry="0"
       y="132.71576"
       x="88.131157"
       height="5.0793481"
       width="0.48374736"
       id="rect5322-5-3-3"
       style="opacity:1;fill:#5e8f11;fill-opacity:1;fill-rule:evenodd;stroke:none;stroke-width:0.40489388;stroke-linecap:round;stroke-linejoin:round;stroke-miterlimit:4;stroke-dasharray:none;stroke-dashoffset:0;stroke-opacity:1" />
  </g>
</svg>
